<svg xmlns="http://www.w3.org/2000/svg" xmlns:xlink="http://www.w3.org/1999/xlink" fill="none" version="1.1" width="20" height="20" viewBox="0 0 20 20"><g><g><path d="M3.00000003,15.499999L3.00000003,6.4999999Q3.00000003,5.46446604,3.73223305,4.732233Q4.46446592,4.00000006,5.4999999,4.00000003L14.499999,4.00000003Q15.535533,4.00000003,16.267766,4.73223305Q16.999999000000003,5.46446693,16.999999000000003,6.4999999L16.999999000000003,15.499999Q16.999999000000003,16.535532,16.267766,17.267766Q15.535532,17.999999000000003,14.499999,17.999999000000003L5.4999999,17.999999000000003Q4.46446681,17.999999000000003,3.732233,17.267766Q3.00000003,16.535533,3.00000003,15.499999ZM3.99999997,15.499999Q4.00000006,16.12132,4.43933976,16.560659Q4.8786794,16.999999000000003,5.4999999,16.999999000000003L14.499999,16.999999000000003Q15.12132,16.999999000000003,15.560659,16.560659Q15.999999,16.12132,15.999999,15.499999L15.999999,6.4999999Q15.999999,5.8786794,15.560659,5.43933976Q15.12132,4.99999997,14.499999,4.99999997L5.4999999,4.99999997Q4.8786795000000005,4.99999997,4.43933976,5.43933976Q3.99999997,5.8786795000000005,3.99999997,6.4999999L3.99999997,15.499999Z" fill="#BBBBBB" fill-opacity="1"/></g><g transform="matrix(0,1,1,0,4.5,-4.5)"><path d="M7.5,2.5L10.5,2.5Q10.5492454,2.50000003,10.5975447,2.5096074Q10.645844199999999,2.51921478,10.6913414,2.53806031Q10.7368383,2.55690581,10.7777848,2.58426523Q10.8187311,2.61162469,10.8535531,2.64644665Q10.888375,2.68126863,10.9157343,2.72221491Q10.9430938,2.76316121,10.961939300000001,2.8086583Q10.9807849,2.85415539,10.990392400000001,2.902454846Q10.9999998,2.9507543,11,3Q10.9999998,3.0492457,10.9903922,3.097545154Q10.9807849,3.14584461,10.961939300000001,3.1913417Q10.9430938,3.23683879,10.9157345,3.27778506Q10.8883753,3.31873137,10.8535533,3.35355335Q10.8187313,3.38837531,10.7777848,3.41573474Q10.7368383,3.44309419,10.6913414,3.46193972Q10.645844199999999,3.48078525,10.597544899999999,3.4903926Q10.5492454,3.49999997,10.5,3.5L7.5,3.5Q7.4507543,3.49999997,7.402454846,3.4903926Q7.35415539,3.48078522,7.3086583,3.46193969Q7.26316121,3.44309419,7.22221494,3.41573477Q7.18126863,3.38837531,7.14644665,3.35355335Q7.11162469,3.31873137,7.0842652600000005,3.27778509Q7.05690581,3.23683879,7.03806028,3.1913417Q7.01921475,3.14584461,7.0096074,3.097545154Q7.00000003,3.0492457,7,3Q7.00000003,2.9507543,7.0096074,2.902454846Q7.01921478,2.85415539,7.03806031,2.8086583Q7.05690581,2.76316121,7.08426523,2.72221494Q7.11162469,2.68126863,7.14644665,2.64644665Q7.18126863,2.61162469,7.22221491,2.58426526Q7.26316121,2.55690581,7.3086583,2.53806028Q7.35415539,2.51921475,7.402454846,2.5096074Q7.4507543,2.50000003,7.5,2.5Z" fill-rule="evenodd" fill="#BBBBBB" fill-opacity="1"/></g><g transform="matrix(0,1,1,0,9.5,-9.5)"><path d="M12.5,2.5L15.5,2.5Q15.5492454,2.50000003,15.5975447,2.5096074Q15.645844199999999,2.51921478,15.6913414,2.53806031Q15.7368383,2.55690581,15.7777848,2.58426523Q15.8187311,2.61162469,15.8535531,2.64644665Q15.888375,2.68126863,15.9157343,2.72221491Q15.9430938,2.76316121,15.961939300000001,2.8086583Q15.9807849,2.85415539,15.990392400000001,2.902454846Q15.9999998,2.9507543,16,3Q15.9999998,3.0492457,15.9903922,3.097545154Q15.9807849,3.14584461,15.961939300000001,3.1913417Q15.9430938,3.23683879,15.9157345,3.27778506Q15.8883753,3.31873137,15.8535533,3.35355335Q15.8187313,3.38837531,15.7777848,3.41573474Q15.7368383,3.44309419,15.6913414,3.46193972Q15.645844199999999,3.48078525,15.597544899999999,3.4903926Q15.5492454,3.49999997,15.5,3.5L12.5,3.5Q12.4507543,3.49999997,12.402454846,3.4903926Q12.35415539,3.48078522,12.3086583,3.46193969Q12.26316121,3.44309419,12.22221494,3.41573477Q12.18126863,3.38837531,12.14644665,3.35355335Q12.11162469,3.31873137,12.08426526,3.27778509Q12.05690581,3.23683879,12.03806028,3.1913417Q12.01921475,3.14584461,12.0096074,3.097545154Q12.00000003,3.0492457,12,3Q12.00000003,2.9507543,12.0096074,2.902454846Q12.01921478,2.85415539,12.03806031,2.8086583Q12.05690581,2.76316121,12.08426523,2.72221494Q12.11162469,2.68126863,12.14644665,2.64644665Q12.18126863,2.61162469,12.22221491,2.58426526Q12.26316121,2.55690581,12.3086583,2.53806028Q12.35415539,2.51921475,12.402454846,2.5096074Q12.4507543,2.50000003,12.5,2.5Z" fill-rule="evenodd" fill="#BBBBBB" fill-opacity="1"/></g><g><path d="M3.5,9L16.500000999999997,9Q16.549247,9.00000003,16.597546,9.0096074Q16.645845,9.01921478,16.691341,9.03806031Q16.736838,9.05690581,16.777784,9.08426523Q16.818731,9.11162469,16.853554000000003,9.14644665Q16.888375,9.18126863,16.915734,9.22221491Q16.943092999999998,9.26316121,16.961939,9.3086583Q16.980784,9.35415539,16.990392999999997,9.402454846Q17,9.4507543,17.000000999999997,9.5Q17,9.5492457,16.990392,9.597545154Q16.980784,9.64584461,16.961939,9.6913417Q16.943092999999998,9.73683879,16.915734,9.77778506Q16.888375,9.81873137,16.853554000000003,9.85355335Q16.818731,9.88837531,16.777785,9.91573474Q16.736838,9.94309419,16.691341,9.96193972Q16.645845,9.98078525,16.597546,9.9903926Q16.549247,9.99999997,16.500000999999997,10L3.5,10Q3.4507543,9.99999997,3.402454846,9.9903926Q3.35415539,9.98078522,3.3086583,9.96193969Q3.26316121,9.94309419,3.22221494,9.91573477Q3.18126863,9.88837531,3.14644665,9.85355335Q3.11162469,9.81873137,3.08426526,9.77778509Q3.05690581,9.73683879,3.03806028,9.6913417Q3.01921475,9.64584461,3.0096074,9.597545154Q3.00000003,9.5492457,3,9.5Q3.00000003,9.4507543,3.0096074,9.402454846Q3.01921478,9.35415539,3.03806031,9.3086583Q3.05690581,9.26316121,3.08426523,9.22221494Q3.11162469,9.18126863,3.14644665,9.14644665Q3.18126863,9.11162469,3.22221491,9.08426526Q3.26316121,9.05690581,3.3086583,9.03806028Q3.35415539,9.01921475,3.402454846,9.0096074Q3.4507543,9.00000003,3.5,9Z" fill-rule="evenodd" fill="#BBBBBB" fill-opacity="1"/></g></g></svg>