<svg xmlns="http://www.w3.org/2000/svg" xmlns:xlink="http://www.w3.org/1999/xlink" fill="none" version="1.1" width="256" height="256" viewBox="0 0 256 256"><defs><clipPath id="master_svg0_2_8124"><rect x="0" y="0" width="256" height="256" rx="0"/></clipPath><linearGradient x1="0.13466165959835052" y1="0.13465124368667603" x2="0.7902886038238405" y2="0.9273969188275342" id="master_svg1_2_8670"><stop offset="0%" stop-color="#A048ED" stop-opacity="1"/><stop offset="73.57142567634583%" stop-color="#007AFF" stop-opacity="1"/><stop offset="100%" stop-color="#007AFF" stop-opacity="1"/></linearGradient></defs><g clip-path="url(#master_svg0_2_8124)"><g><g><g></g><g><path d="M127.999950703125,256C63.708926703125,256,11.594970703125,203.88605,11.594970703125,139.59503L11.594970703125,22.735348C11.594970703125,10.180895,21.775865703125,0,34.330318703125,0L221.669570703125,0C234.224030703125,0,244.404920703125,10.180895,244.404920703125,22.735348L244.404920703125,139.59503C244.404920703125,203.8815,192.286420703125,256,127.999950703125,256Z" fill="url(#master_svg1_2_8670)" fill-opacity="1" style="mix-blend-mode:passthrough"/></g></g><g><g><path d="M100.835906640625,127.954597484375C97.857581640625,127.954597484375,94.879257640625,126.817832484375,92.605720640625,124.544296484375C88.058647640625,119.997230484375,88.058647640625,112.553680484375,92.605720640625,108.006607484375L138.69935564062501,61.840202484375L89.195419640625,61.840202484375C82.765853840625,61.840202484375,77.554931640625,56.674736484375,77.554931640625,50.245174484375C77.554931640625,43.815608984375004,82.765884440625,38.650146484375,89.195419640625,38.650146484375L166.800247640625,38.650146484375C171.506439640625,38.650146484375,175.75343364062502,41.514793384375,177.554077640625,45.866344484375C179.354721640625,50.217891484375,178.358921640625,55.237846484375,175.030456640625,58.566307484375L109.070640640625,124.535194484375C106.797103640625,126.808731484375,103.814231640625,127.954597484375,100.835906640625,127.954597484375Z" fill="#FFFFFF" fill-opacity="1" style="mix-blend-mode:passthrough"/></g></g><g><g><path d="M128.00004550439454,209.43803760986327C107.49277450439453,209.43803760986327,88.94981350439453,198.08853160986328,79.60559080439454,179.81387360986326C76.67727660439454,174.08909560986328,78.94625854439452,167.07751460986327,84.67103580439453,164.14920060986327C90.39580550439453,161.2209016098633,97.40737950439453,163.48988360986328,100.33569350439453,169.21464560986328C105.67849750439453,179.6638026098633,116.27771750439453,186.1524806098633,128.00007650439454,186.1524806098633C145.1152495043945,186.1524806098633,159.04292250439454,172.22937060986328,159.04292250439454,155.1096346098633C159.04292250439454,143.3872836098633,152.55424450439455,132.78805560986328,142.10508750439453,127.44525160986328C136.38032550439453,124.51693760986328,134.11134350439454,117.50536360986328,137.03964250439452,111.78059390986328C139.96795650439452,106.05581664986327,146.97953750439453,103.78683470986329,152.70431550439451,106.71514890986329C170.97442650439453,116.05481760986328,182.32392950439453,134.59777860986327,182.32392950439453,155.10505660986328C182.31933950439452,185.06571960986327,157.95159950439455,209.43803760986327,128.00004550439454,209.43803760986327Z" fill="#FFFFFF" fill-opacity="1" style="mix-blend-mode:passthrough"/></g></g></g></g></svg>