<svg xmlns="http://www.w3.org/2000/svg" xmlns:xlink="http://www.w3.org/1999/xlink" fill="none" version="1.1" width="20" height="20" viewBox="0 0 20 20"><g><g><path d="M13,11Q13,11.1473808,12.9855542,11.2940516Q12.9711084,11.4407225,12.9423552,11.5852709Q12.9136028,11.7298198,12.870821,11.870854099999999Q12.8280382,12.011888500000001,12.7716379,12.148049799999999Q12.7152381,12.284212100000001,12.6457634,12.4141903Q12.5762887,12.5441685,12.494408100000001,12.6667104Q12.412528,12.789253200000001,12.319031200000001,12.9031796Q12.2255344,13.0171061,12.1213202,13.1213198Q12.017107,13.225534,11.903180599999999,13.319031200000001Q11.7892537,13.412528,11.6667109,13.494408100000001Q11.5441685,13.5762887,11.4141908,13.6457634Q11.284212100000001,13.7152381,11.148050300000001,13.7716379Q11.011888500000001,13.8280382,10.870854399999999,13.870821Q10.7298198,13.9136028,10.5852709,13.9423552Q10.4407225,13.9711084,10.2940516,13.9855542Q10.1473808,14,10,14Q9.8526194,14,9.7059484,13.9855542Q9.5592775,13.9711084,9.4147286,13.9423552Q9.2701802,13.9136028,9.129145900000001,13.870821Q8.9881115,13.8280382,8.8519496,13.7716379Q8.7157879,13.7152381,8.5858097,13.6457634Q8.4558318,13.5762887,8.3332891,13.494408100000001Q8.210746799999999,13.412528,8.0968201,13.319031200000001Q7.9828934700000005,13.2255344,7.87867963,13.1213202Q7.77446592,13.017107,7.68096864,12.903180599999999Q7.58747137,12.7892537,7.50559109,12.6667109Q7.42371088,12.5441685,7.35423619,12.4141908Q7.28476149,12.284212100000001,7.22836138,12.148050300000001Q7.17196131,12.011888500000001,7.12917899,11.870854399999999Q7.086396672,11.7298198,7.057644151,11.5852709Q7.028891638,11.4407225,7.014445819,11.2940516Q7,11.1473808,7,11Q7,10.8526194,7.014445819,10.7059484Q7.028891638,10.5592775,7.057644151,10.4147286Q7.086396672,10.2701802,7.12917899,10.129145900000001Q7.17196131,9.9881115,7.22836138,9.8519496Q7.28476149,9.7157879,7.35423622,9.5858097Q7.42371094,9.4558318,7.50559115,9.3332891Q7.58747143,9.210746799999999,7.68096864,9.0968201Q7.77446592,8.98289347,7.87867963,8.87867963Q7.9828934700000005,8.77446592,8.0968201,8.68096864Q8.210746799999999,8.58747137,8.3332891,8.50559109Q8.4558318,8.42371088,8.585809900000001,8.35423619Q8.7157879,8.28476149,8.8519496,8.22836138Q8.9881115,8.17196131,9.129145900000001,8.12917899Q9.2701802,8.086396672,9.4147289,8.057644151Q9.5592775,8.028891638,9.7059484,8.014445819Q9.8526194,8,10,8Q10.1473808,8,10.2940516,8.014445819Q10.4407225,8.028891638,10.5852709,8.057644151Q10.7298198,8.086396672,10.870854099999999,8.12917899Q11.011888500000001,8.17196131,11.148049799999999,8.22836138Q11.284212100000001,8.28476149,11.4141903,8.35423622Q11.5441685,8.42371094,11.6667104,8.50559115Q11.789253200000001,8.58747143,11.9031796,8.68096864Q12.0171061,8.77446592,12.1213198,8.87867963Q12.225534,8.98289347,12.319031200000001,9.0968201Q12.412528,9.210746799999999,12.494408100000001,9.3332891Q12.5762887,9.4558318,12.6457634,9.585809900000001Q12.7152381,9.7157879,12.7716379,9.8519496Q12.8280382,9.9881115,12.870821,10.129145900000001Q12.9136028,10.2701802,12.9423552,10.4147289Q12.9711084,10.5592775,12.9855542,10.7059484Q13,10.8526194,13,11ZM12,11Q12.000000499999999,10.9017463,11.9903698,10.8039656Q11.980739100000001,10.706185099999999,11.9615703,10.6098192Q11.9424019,10.5134535,11.913880299999999,10.4194305Q11.885358799999999,10.3254075,11.847758800000001,10.234633Q11.810159200000001,10.1438584,11.7638426,10.0572064Q11.7175264,9.9705544,11.6629391,9.8888593Q11.608352700000001,9.8071644,11.5460215,9.7312133Q11.4836903,9.6552622,11.414213700000001,9.5857863Q11.344738,9.5163106,11.2687869,9.4539791Q11.192835800000001,9.3916476,11.111140299999999,9.3370607Q11.029445599999999,9.2824739,10.9427934,9.2361574Q10.8561413,9.189841,10.7653666,9.1522409Q10.6745923,9.1146408,10.5805693,9.0861194Q10.4865465,9.0575979,10.3901803,9.0384295Q10.2938151,9.0192611,10.1960344,9.0096307Q10.098254,9,10,9Q9.9017463,9,9.8039656,9.0096306Q9.706185099999999,9.0192611,9.6098192,9.0384294Q9.5134535,9.0575978,9.4194305,9.0861193Q9.3254075,9.1146408,9.234633,9.1522409Q9.1438584,9.189841,9.0572064,9.2361574Q8.9705544,9.2824739,8.8888593,9.3370607Q8.8071644,9.3916476,8.7312133,9.453979Q8.6552622,9.5163106,8.5857863,9.5857863Q8.5163106,9.6552622,8.4539791,9.7312133Q8.3916476,9.8071644,8.3370607,9.8888593Q8.2824738,9.9705544,8.2361574,10.0572064Q8.1898408,10.1438584,8.1522408,10.234633Q8.1146407,10.3254075,8.0861192,10.4194307Q8.0575976,10.5134535,8.0384293,10.6098192Q8.019261,10.706185099999999,8.0096304,10.8039656Q8,10.9017463,8,11Q8,11.098254,8.0096306,11.1960344Q8.019261,11.2938151,8.0384293,11.3901803Q8.0575976,11.4865465,8.0861192,11.5805693Q8.1146407,11.6745923,8.1522408,11.7653666Q8.1898408,11.8561413,8.2361574,11.9427934Q8.2824738,12.029445599999999,8.3370607,12.111140299999999Q8.3916476,12.192835800000001,8.453979,12.2687869Q8.5163106,12.344738,8.5857863,12.414213700000001Q8.6552622,12.4836903,8.7312133,12.5460215Q8.8071644,12.608352700000001,8.8888593,12.6629391Q8.9705544,12.7175264,9.0572064,12.7638426Q9.1438584,12.810159200000001,9.234633,12.847758800000001Q9.3254075,12.885358799999999,9.4194307,12.913880800000001Q9.5134535,12.942402399999999,9.6098192,12.9615707Q9.706185099999999,12.9807396,9.8039656,12.9903698Q9.9017463,13,10,13Q10.098254,13,10.1960344,12.9903698Q10.2938151,12.980739100000001,10.3901803,12.9615703Q10.4865465,12.9424019,10.5805693,12.913880299999999Q10.6745923,12.885358799999999,10.7653666,12.847758800000001Q10.8561413,12.810159200000001,10.9427934,12.7638426Q11.029445599999999,12.7175264,11.111140299999999,12.6629391Q11.192835800000001,12.608352700000001,11.2687869,12.5460215Q11.344738,12.4836903,11.414213700000001,12.414213700000001Q11.4836903,12.344738,11.5460215,12.2687869Q11.608352700000001,12.192835800000001,11.6629391,12.111140299999999Q11.7175264,12.029445599999999,11.7638426,11.9427934Q11.810159200000001,11.8561413,11.847758800000001,11.7653666Q11.885358799999999,11.6745923,11.913880800000001,11.5805693Q11.942402399999999,11.4865465,11.9615707,11.3901803Q11.9807396,11.2938151,11.9903698,11.1960344Q12.000000499999999,11.098254,12,11Z" fill="#BBBBBB" fill-opacity="1"/></g><g><path d="M19,11.000001000000001C19,11.5384617,16.352942,18.000002000000002,10,18.000002000000002C3.647059,18.000002000000002,1,11.5384617,1,11.000001000000001C1,10.4615393,3.647059,4,10,4C16.352942,4,19,10.4615393,19,11.000001000000001ZM17.999998,11.000001000000001Q17.999998,10.925291099999999,17.596226,10.1332746Q16.998321,8.9604602,16.126117999999998,7.9523782999999995Q13.571692,5,9.999999,5Q6.4283085,5.0000001,3.8738811,7.952378700000001Q3.0016794,8.960459700000001,2.4037737999999997,10.1332746Q2,10.925292500000001,1.9999991700000002,11.000001000000001Q1.9999991700000002,11.074708900000001,2.4037726,11.866726400000001Q3.0016778,13.0395403,3.8738804,14.047623Q6.4283085,17.000002000000002,10,17.000002000000002Q13.571692,17.000002000000002,16.12612,14.047623Q16.998319000000002,13.0395441,17.596226,11.8667274Q18,11.074708000000001,17.999998,11.000001000000001Z" fill-rule="evenodd" fill="#BBBBBB" fill-opacity="1"/></g></g></svg>