<svg xmlns="http://www.w3.org/2000/svg" xmlns:xlink="http://www.w3.org/1999/xlink" fill="none" version="1.1" width="20" height="20" viewBox="0 0 20 20"><g><g><g><path d="" fill="#CCCCCC" fill-opacity="0"/></g><g><ellipse cx="10" cy="10" rx="6.899999998509884" ry="6.899999998509884" fill-opacity="0" stroke-opacity="0" stroke="#CCCCCC" fill="none" stroke-width="0.20000000298023224" stroke-linecap="ROUND" stroke-dasharray="0 0"/></g></g><g><path d="M15.353554,5.35355321Q15.42388,5.2832270900000005,15.461939,5.19134159Q15.5,5.099456117,15.5,5Q15.5,4.9507543,15.490393,4.902454846Q15.480785,4.85415539,15.461939,4.8086583Q15.443093,4.76316121,15.415734,4.72221494Q15.388374,4.68126863,15.353553,4.64644665Q15.318731,4.61162469,15.277784,4.5842652600000005Q15.236837,4.55690581,15.19134,4.53806028Q15.145844,4.51921475,15.097544,4.5096074Q15.049246,4.50000003,15,4.5Q14.9005432,4.5,14.8086576,4.53806031Q14.7167721,4.57612059,14.6464462,4.64644679L4.64644659,14.6464462Q4.57612047,14.7167721,4.53806025,14.8086576Q4.5,14.9005432,4.5,15Q4.50000003,15.049246,4.5096074,15.097545Q4.51921478,15.145844,4.53806031,15.19134Q4.55690581,15.236837,4.58426523,15.277784Q4.61162469,15.318731,4.64644665,15.353553Q4.68126863,15.388374,4.72221491,15.415733Q4.76316121,15.443093,4.8086583,15.461939Q4.85415539,15.480785,4.902454846,15.490393Q4.9507543,15.5,5,15.5Q5.099456117,15.5,5.19134159,15.461939Q5.2832270900000005,15.42388,5.35355321,15.353554L15.353554,5.35355341L15.353554,5.35355321Z" fill-rule="evenodd" fill="#333333" fill-opacity="1"/></g><g transform="matrix(-1,0,0,1,30,0)"><path d="M25.353554000000003,5.35355321Q25.42388,5.2832270900000005,25.461939,5.19134159Q25.5,5.099456117,25.5,5Q25.5,4.9507543,25.490392999999997,4.902454846Q25.480784999999997,4.85415539,25.461939,4.8086583Q25.443092999999998,4.76316121,25.415734,4.72221494Q25.388374,4.68126863,25.353552999999998,4.64644665Q25.318731,4.61162469,25.277784,4.5842652600000005Q25.236837,4.55690581,25.19134,4.53806028Q25.145844,4.51921475,25.097544,4.5096074Q25.049246,4.50000003,25,4.5Q24.9005432,4.5,24.8086576,4.53806031Q24.7167721,4.57612059,24.6464462,4.64644679L14.64644659,14.6464462Q14.57612047,14.7167721,14.538060250000001,14.8086576Q14.5,14.9005432,14.5,15Q14.50000003,15.049246,14.5096074,15.097545Q14.51921478,15.145844,14.53806031,15.19134Q14.55690581,15.236837,14.58426523,15.277784Q14.61162469,15.318731,14.64644665,15.353553Q14.68126863,15.388374,14.72221491,15.415733Q14.76316121,15.443093,14.8086583,15.461939Q14.85415539,15.480785,14.902454846,15.490393Q14.9507543,15.5,15,15.5Q15.099456117,15.5,15.19134159,15.461939Q15.28322709,15.42388,15.35355321,15.353554L25.353554000000003,5.35355341L25.353554000000003,5.35355321Z" fill-rule="evenodd" fill="#333333" fill-opacity="1"/></g></g></svg>