<?xml version="1.0" encoding="UTF-8"?>
<svg xmlns="http://www.w3.org/2000/svg" viewBox="0 0 264 264" width="264" height="264">
<path d="M251.71 146.5C252.46 149.77 251.72 153.66 251.27 157.01C250.78 160.6 250.43 164.19 249.75 167.75C249.07 171.28 247.79 174.67 246.99 178.16C245.77 183.51 243.39 188.43 241.25 193.46C230.05 219.77 208.05 240.44 182.67 252.86C174.16 257.02 164.76 259.83 155.51 261.77C151.67 262.58 145.87 262.3 142.54 263.92C135.51 263.92 128.49 263.92 121.46 263.92C119.36 262.96 117 263.13 114.75 262.83C111.19 262.36 107.47 261.64 103.99 260.78C92.18 257.85 80.14 253.36 69.98 246.64C70.32 246.59 71.23 246.62 71.49 246.43C71.64 246.31 71.5 245.27 71.62 244.97C71.85 244.35 75.71 240.44 76.31 240.12C76.68 239.93 77.34 240.09 77.65 239.84C78.12 239.46 77.78 238.73 78.12 238.31C78.55 237.79 79.41 238.17 79.84 237.65C80.18 237.24 79.83 236.51 80.31 236.12C80.63 235.85 81.29 236.03 81.65 235.84C83.29 234.98 85.06 232.45 86.32 231.08C87.07 230.26 88.34 228.63 89.31 228.12C89.71 227.91 90.26 228.05 90.65 227.84C91.93 227.16 93.02 225.3 94.08 224.32C95.35 223.15 96.65 221.17 98.1 220.29C98.74 219.91 99.77 220.17 99.89 219.29C100.15 217.51 98.19 217.61 97.21 217.07C96.67 216.77 91.18 212.19 90.92 211.82C92.91 211.5 95.19 212.22 97.25 212.28C99.88 212.34 102.63 212.1 105.25 211.86C110.08 211.41 114.89 210.4 119.75 210.16C124.99 209.89 130.32 210.29 135.54 209.75C143.01 208.97 151.22 208.25 158.75 208.94C162.57 209.3 166.02 211.27 169.77 211.88C176.41 212.97 182.53 209.25 183.18 202.25C184.07 192.49 171.91 188.84 164.25 187.89C149.42 186.06 133.22 188.25 118.25 189.01C113.99 189.22 104.34 191.18 100.83 190.12C101.47 188.61 101 187.47 101 185.75C101.31 186.08 101.39 187.21 101.86 187.56C103.61 188.89 106.78 184.11 108.1 183.37C110.61 181.97 113.65 182.33 116.2 181.03C117.97 180.13 119.8 177.38 121.88 176.73C123.69 176.16 125.85 176.7 127.74 176.15C129.23 175.73 130.76 174.89 132.27 174.59C133.07 174.44 133.9 174.66 134.67 174.34C135.95 173.8 136.13 173.23 137.75 173.22C141.33 173.19 142.08 173.31 145.35 172.04C146 171.79 147.21 172.06 147.64 171.43C148.16 170.69 147.77 169.14 147.99 168.26C148.19 167.42 148.82 167.03 149.06 166.23C149.66 164.21 149.09 161.82 149.71 159.75C149.94 158.99 150.68 158.95 150.98 158.19C151.56 156.72 150.73 154.88 151.2 153.38C151.36 152.9 151.86 152.68 152.03 152.2C152.29 151.45 152.02 150.63 152.24 149.89C152.43 149.26 152.95 148.94 153.09 148.24C153.31 147.16 152.88 145.96 153.23 144.88C153.43 144.25 153.98 143.94 154.14 143.24C154.41 142.06 153.75 140.52 154.22 139.39C154.71 138.22 157.22 136.55 158.38 136.19C159.36 135.88 160.5 136.44 161 135.19C161.78 133.27 160.61 130.73 161.14 128.75C161.3 128.13 161.68 128.21 161.92 127.73C162.43 126.72 162.3 125.91 163.38 125.21C163.72 124.99 164.19 125.1 164.54 124.81C165.02 124.4 164.92 123.48 165.38 123.21C166.5 122.53 167.73 123.65 168.72 123.63C170.5 123.6 171.06 121.8 172.38 121.21C173.78 120.58 177.57 119.75 179.11 120.18C179.87 120.4 180.15 121.16 180.76 121.46C181.99 122.09 183.07 121.98 184.04 123.2C185.23 124.69 186.27 126.34 187.35 127.91C187.73 128.47 188.52 128.79 188.83 129.39C189.34 130.42 189.44 131.22 190.06 132.21C190.59 133.05 191.35 134.93 192.65 134.69C193.5 134.53 196.29 131.05 197.08 130.32C199.27 128.3 201.58 127.12 203.63 124.89C204.9 123.51 206.67 120.98 208.31 120.12C208.68 119.93 209.34 120.09 209.65 119.84C210.17 119.41 209.79 118.55 210.31 118.12C210.73 117.78 211.46 118.12 211.84 117.65C212.18 117.24 211.83 116.51 212.31 116.12C212.63 115.85 213.29 116.03 213.65 115.84C214.97 115.15 216.62 113 217.63 111.89C218.63 110.8 220.02 108.8 221.31 108.12C221.71 107.91 222.26 108.05 222.65 107.84C225.35 106.42 227.45 101.9 230.11 100.29C230.53 100.03 231.3 100.12 231.65 99.84C232.17 99.41 231.79 98.55 232.31 98.12C232.64 97.85 233.33 98.1 233.65 97.84C234.17 97.41 233.79 96.55 234.31 96.12C234.63 95.85 235.29 96.03 235.65 95.84C237.37 94.94 240.43 90.84 242.07 89.33C243.04 88.43 243.56 88.41 244.65 87.84C246.15 87.05 250.03 82.41 251.25 80.96C251.4 102.81 251.56 124.65 251.71 146.5Z" fill="#fe0326" fill-rule="evenodd" stroke="#fe0326" stroke-width="0.25" stroke-linejoin="round"/>
<path d="M145.58 41.07C149.22 42.26 152.86 43.45 156.5 44.64C161.23 47.06 165.72 49.67 169.83 53.12C169.97 53.32 170.12 53.53 170.27 53.73C170.48 53.91 170.69 54.09 170.9 54.27C171.08 54.23 171.25 54.19 171.43 54.16C173.08 54.85 176.41 60.21 177.49 62.12C178.14 63.27 178.1 64.31 179.31 65C179.4 66.91 180.38 68.79 180.78 70.75C181.31 73.29 181.19 76.02 181.8 78.5C183.03 80.28 182.06 80.71 181.5 82.34C181.15 83.34 181.21 84.7 181.12 85.75C180.6 92.07 179.11 98.58 176.47 104.36C175.82 105.78 175.01 107.09 174.5 108.6C173.4 109.13 169.25 116.29 167.84 117.96C164.81 121.55 160.71 124.84 157.02 127.77C149.27 133.91 140.6 138.48 132.55 144.08C129.02 146.54 125.41 148.85 121.9 151.17C119.76 152.59 118 155.19 115.63 156.46C115.29 156.64 114.82 156.57 114.52 156.79C113.75 157.32 109.97 162.26 109.14 163.33C104.22 169.68 102.34 175.45 100.81 183.2C100.42 185.2 99.46 188.48 100.83 190.12C104.34 191.18 113.99 189.22 118.25 189.01C133.22 188.25 149.42 186.06 164.25 187.89C171.91 188.84 184.07 192.49 183.18 202.25C182.53 209.25 176.41 212.97 169.77 211.88C166.02 211.27 162.57 209.3 158.75 208.94C151.22 208.25 143.01 208.97 135.54 209.75C130.32 210.29 124.99 209.89 119.75 210.16C114.89 210.4 110.08 211.41 105.25 211.86C102.63 212.1 99.88 212.34 97.25 212.28C95.19 212.22 92.91 211.5 90.92 211.82C84.57 209.72 82.31 211.11 79.47 203.47C78.5 200.84 79.65 196.75 77.5 194.98C77.61 193.97 78.07 193.65 78.35 192.75C78.78 191.42 78.36 188.88 78.21 187.5C78.78 185.59 78.71 183.49 78.87 181.5C79.23 177.33 80.17 171.41 81.4 167.52C83.44 161.07 88.1 153.84 92.52 148.63C94.7 146.07 98.01 144.16 99.91 141.55C103.38 139.99 106.55 136.68 109.64 134.41C110.74 133.6 112.16 133.02 112.5 131.71C115.44 131.05 121.11 126.21 123.94 124.21C129.74 120.13 135.93 116.31 141.44 111.89C142.74 110.85 143.8 109.24 145.05 108.15C145.91 107.4 146.93 106.87 147.75 106C149.53 104.1 150.74 101.87 152.18 99.9C153.37 98.27 154.57 96.92 155.32 94.96C157.14 90.25 160.58 80.75 157.7 76.09C158.25 74.13 155.75 71.29 154.14 70.45C153.12 68.48 149.88 66.45 147.68 65.92C146.66 64.85 145.36 64.57 144 64.02C139.15 62.05 135.25 61.6 130.01 61.99C114.22 63.16 107.5 74.28 95.12 81.86C93.54 82.83 91.64 83.76 89.76 83.82C88.39 83.86 86.74 83.18 85.57 83.56C84.64 82.6 82.67 82.35 81.38 81.45C78.27 79.26 78.65 75.18 78.66 71.91C79.9 67.94 82.84 65.35 85.92 62.66C90.46 58.68 94.98 54.7 99.94 51.24C102.09 49.73 106.88 47.67 108 45.56C110.99 45.18 114.11 43.6 117.04 42.52C120.07 41.4 123.57 40.93 126.75 40.44C131.42 39.71 136.85 39.65 141.52 40.44C142.95 40.68 144.12 41.07 145.58 41.07Z" fill="#ffffff" fill-rule="evenodd" stroke="#ffffff" stroke-width="0.25" stroke-linejoin="round"/>
<path d="M251.78 39.35C251.76 75.06 251.73 110.78 251.71 146.5C251.56 124.65 251.4 102.81 251.25 80.96C250.03 82.41 246.15 87.05 244.65 87.84C243.56 88.41 243.04 88.43 242.07 89.33C240.43 90.84 237.37 94.94 235.65 95.84C235.29 96.03 234.63 95.85 234.31 96.12C233.79 96.55 234.17 97.41 233.65 97.84C233.33 98.1 232.64 97.85 232.31 98.12C231.79 98.55 232.17 99.41 231.65 99.84C231.3 100.12 230.53 100.03 230.11 100.29C227.45 101.9 225.35 106.42 222.65 107.84C222.26 108.05 221.71 107.91 221.31 108.12C220.02 108.8 218.63 110.8 217.63 111.89C216.62 113 214.97 115.15 213.65 115.84C213.29 116.03 212.63 115.85 212.31 116.12C211.83 116.51 212.18 117.24 211.84 117.65C211.46 118.12 210.73 117.78 210.31 118.12C209.79 118.55 210.17 119.41 209.65 119.84C209.34 120.09 208.68 119.93 208.31 120.12C206.67 120.98 204.9 123.51 203.63 124.89C201.58 127.12 199.27 128.3 197.08 130.32C196.29 131.05 193.5 134.53 192.65 134.69C191.35 134.93 190.59 133.05 190.06 132.21C189.44 131.22 189.34 130.42 188.83 129.39C188.52 128.79 187.73 128.47 187.35 127.91C186.27 126.34 185.23 124.69 184.04 123.2C183.07 121.98 181.99 122.09 180.76 121.46C180.15 121.16 179.87 120.4 179.11 120.18C177.57 119.75 173.78 120.58 172.38 121.21C171.06 121.8 170.5 123.6 168.72 123.63C167.73 123.65 166.5 122.53 165.38 123.21C164.92 123.48 165.02 124.4 164.54 124.81C164.19 125.1 163.72 124.99 163.38 125.21C162.3 125.91 162.43 126.72 161.92 127.73C161.68 128.21 161.3 128.13 161.14 128.75C160.61 130.73 161.78 133.27 161 135.19C160.5 136.44 159.36 135.88 158.38 136.19C157.22 136.55 154.71 138.22 154.22 139.39C153.75 140.52 154.41 142.06 154.14 143.24C153.98 143.94 153.43 144.25 153.23 144.88C152.88 145.96 153.31 147.16 153.09 148.24C152.95 148.94 152.43 149.26 152.24 149.89C152.02 150.63 152.29 151.45 152.03 152.2C151.86 152.68 151.36 152.9 151.2 153.38C150.73 154.88 151.56 156.72 150.98 158.19C150.68 158.95 149.94 158.99 149.71 159.75C149.09 161.82 149.66 164.21 149.06 166.23C148.82 167.03 148.19 167.42 147.99 168.26C147.77 169.14 148.16 170.69 147.64 171.43C147.21 172.06 146 171.79 145.35 172.04C142.08 173.31 141.33 173.19 137.75 173.22C136.13 173.23 135.95 173.8 134.67 174.34C133.9 174.66 133.07 174.44 132.27 174.59C130.76 174.89 129.23 175.73 127.74 176.15C125.85 176.7 123.69 176.16 121.88 176.73C119.8 177.38 117.97 180.13 116.2 181.03C113.65 182.33 110.61 181.97 108.1 183.37C106.78 184.11 103.61 188.89 101.86 187.56C101.39 187.21 101.31 186.08 101 185.75C101 187.47 101.47 188.61 100.83 190.12C99.46 188.48 100.42 185.2 100.81 183.2C102.34 175.45 104.22 169.68 109.14 163.33C109.97 162.26 113.75 157.32 114.52 156.79C114.82 156.57 115.29 156.64 115.63 156.46C118 155.19 119.76 152.59 121.9 151.17C125.41 148.85 129.02 146.54 132.55 144.08C140.6 138.48 149.27 133.91 157.02 127.77C160.71 124.84 164.81 121.55 167.84 117.96C169.25 116.29 173.4 109.13 174.5 108.6C174.63 108.86 174.58 109.67 175.19 109.38C175.2 109.38 176.79 106.67 177.09 106.3C178.18 105 179.22 104.54 180.61 103.8C181.59 103.27 182.54 101.89 183.31 101.08C184.69 99.64 186.4 97.35 188.09 96.31C188.52 96.05 189.24 96.1 189.6 95.8C190.06 95.42 189.79 94.75 190.13 94.34C190.57 93.83 191.37 94.11 191.8 93.6C192.14 93.19 191.88 92.52 192.34 92.13C192.69 91.84 193.42 91.88 193.84 91.62C195.82 90.38 197.69 87.78 199.31 86.08C200.48 84.85 201.5 84.46 202.84 83.62C205.66 81.86 207.26 78.05 210.09 76.31C210.52 76.05 211.24 76.1 211.6 75.8C212.06 75.42 211.79 74.75 212.13 74.34C212.57 73.83 213.37 74.11 213.8 73.6C214.14 73.19 213.88 72.52 214.34 72.13C214.69 71.84 215.42 71.88 215.84 71.62C218.66 69.86 220.26 66.05 223.09 64.31C223.64 63.97 224.29 63.96 224.84 63.62C227.66 61.86 229.26 58.05 232.09 56.31C232.52 56.05 233.24 56.1 233.6 55.8C234.06 55.42 233.79 54.75 234.13 54.34C234.57 53.83 235.37 54.11 235.8 53.6C236.06 53.28 235.87 52.66 236.13 52.34C236.53 51.87 237.33 51.94 237.84 51.62C240.66 49.86 242.26 46.05 245.09 44.31C245.64 43.97 246.29 43.96 246.84 43.62C248.74 42.43 249.69 40.27 251.78 39.35ZM77.5 194.98C79.65 196.75 78.5 200.84 79.47 203.47C82.31 211.11 84.57 209.72 90.92 211.82C91.18 212.19 96.67 216.77 97.21 217.07C98.19 217.61 100.15 217.51 99.89 219.29C99.77 220.17 98.74 219.91 98.1 220.29C96.65 221.17 95.35 223.15 94.08 224.32C93.02 225.3 91.93 227.16 90.65 227.84C90.26 228.05 89.71 227.91 89.31 228.12C88.34 228.63 87.07 230.26 86.32 231.08C85.06 232.45 83.29 234.98 81.65 235.84C81.29 236.03 80.63 235.85 80.31 236.12C79.83 236.51 80.18 237.24 79.84 237.65C79.41 238.17 78.55 237.79 78.12 238.31C77.78 238.73 78.12 239.46 77.65 239.84C77.34 240.09 76.68 239.93 76.31 240.12C75.71 240.44 71.85 244.35 71.62 244.97C71.5 245.27 71.64 246.31 71.49 246.43C71.23 246.62 70.32 246.59 69.98 246.64C64.75 243.46 60.11 239.94 55.44 236.11C52.93 234.05 49.6 232 48.22 229.02C47.82 227.96 46.05 226.56 46.31 225.3C46.55 224.11 48.07 224.1 48.84 223.62C51.66 221.86 53.26 218.05 56.09 216.31C56.52 216.05 57.24 216.1 57.6 215.8C58.12 215.37 57.83 214.57 58.34 214.13C58.66 213.87 59.28 214.06 59.6 213.8C60.11 213.37 59.82 212.57 60.34 212.13C60.69 211.84 61.42 211.88 61.84 211.62C64.66 209.86 66.26 206.05 69.09 204.31C69.57 204.02 70.13 204.06 70.61 203.8C71.4 203.37 76.21 198.65 76.56 197.89C77.17 196.56 76.25 196.07 77.5 194.98Z" fill="#fb1c27" fill-rule="evenodd" stroke="#fb1c27" stroke-width="0.25" stroke-linejoin="round"/>
<path d="M173 0.08C182.52 0.08 192.04 0.08 201.56 0.08C201.14 1.92 197.8 5.3 196.06 6.34C195.66 6.57 195.04 6.57 194.74 6.91C194.51 7.16 194.6 7.75 194.34 8.06C193.71 8.81 192.59 8.86 191.84 9.59C189.56 11.83 185.57 16.87 183.06 18.34C182.48 18.67 181.89 18.7 181.34 19.09C178.68 20.96 176.97 24.18 174.34 26.09C173.96 26.37 173.19 26.48 172.91 26.74C172.46 27.15 172.6 27.89 172.06 28.34C171.75 28.6 167.6 31.09 167.24 31.17C166 31.44 163.3 31.13 162.29 32.13C161.38 33.04 162.7 33.82 162.51 34.65C162.35 35.33 161.2 35.56 161.05 36.31C160.95 36.83 161.43 37.15 161.33 37.65C161.32 37.71 159.79 40.89 159.73 40.97C159.23 41.62 158.17 41.75 157.75 42.53C157.14 43.68 157.77 44 156.5 44.64C152.86 43.45 149.22 42.26 145.58 41.07C145.21 40.76 143.98 40.21 143.85 39.72C143.5 38.48 144.76 35.01 144.48 33.27C144.16 31.21 141.07 31.52 140.82 30.22C140.73 29.73 145.42 24.82 146.13 24.37C146.64 24.05 147.41 24.07 147.81 23.6C148.07 23.29 147.93 22.71 148.19 22.4C148.78 21.71 150.12 21.38 150.89 20.63C153.31 18.25 156.36 14.13 159.13 12.37C159.68 12.02 160.32 11.98 160.88 11.63C163.18 10.16 165.16 7.29 167.11 5.37C167.9 4.6 168.87 4.43 169.6 3.81C170.1 3.38 169.9 2.62 170.4 2.19C171.44 1.3 172.32 1.53 173 0.08ZM147.68 65.92C146.96 66.43 145.96 66.47 145.33 67.09C144.21 68.2 144.82 70.26 144.23 71.6C143.94 72.23 143.19 72.5 142.86 73.1C142.61 73.56 142.75 74.14 142.36 74.55C141.56 75.37 139.82 74.57 139.08 75.41C138.86 75.66 139.04 76.3 138.85 76.64C138.71 76.88 136.8 79.08 136.55 79.32C136.11 79.76 135.33 79.79 134.88 80.21C134.43 80.62 134.35 81.23 133.94 81.69C133.14 82.58 131.85 82.83 131.2 83.96C130.43 85.28 129.5 88.74 128.39 89.61C128 89.91 127.36 89.9 126.92 90.16C126.23 90.56 125.87 91.48 125.1 91.74C124.26 92.02 123.23 91.72 122.42 92.22C121.8 92.61 121.81 93.48 121.09 93.75C120.22 94.08 119.16 93.68 118.28 94.08C117.08 94.62 116.52 96.4 115.16 96.89C114.07 97.27 112.51 96.7 111.52 97.3C110.65 97.84 110.97 98.81 109.74 99.09C108.89 99.29 103.81 99.97 103.38 100.22C102.77 100.56 103.02 101.59 102.16 101.93C101.08 102.36 99.49 101.56 98.52 102.28C97.95 102.69 98.24 103.58 97.72 103.92C96.6 104.63 94.46 103.44 93.38 104.2C92.85 104.58 93.24 105.5 92.72 105.93C92.4 106.2 91.76 106.03 91.39 106.22C90.33 106.75 90.43 107.77 89.81 108.54C89.39 109.06 88.56 108.91 88.22 109.39C87.53 110.35 87.57 111.97 86.55 112.81C83.69 115.16 80.08 113.73 76.89 114.74C75.32 115.24 74.47 117.52 73.06 118.34C72.59 118.61 72.06 118.6 71.59 118.87C68.74 120.47 66.99 124.16 64.34 126.09C63.88 126.42 63.08 126.53 62.74 126.91C62.4 127.29 62.56 127.93 62.06 128.34C61.63 128.69 61.06 128.6 60.59 128.87C56.82 131 54.81 136.15 51.06 138.34C50.48 138.67 49.89 138.7 49.34 139.09C46.68 140.96 44.97 144.18 42.34 146.09C41.96 146.37 41.19 146.48 40.91 146.74C40.46 147.15 40.6 147.89 40.06 148.34C39.57 148.74 38.87 148.72 38.34 149.09C34.34 151.9 31.84 156.47 27.59 158.87C26.58 159.44 25.66 160.77 24.84 161.59C21.74 164.69 18.86 168.08 15.01 170C13.86 167.21 12.9 161.77 12.78 158.75C12.73 157.54 13.03 155.95 12.85 154.84C12.73 154.13 12.12 153.58 12.04 152.73C11.59 147.95 11.84 143.05 11.84 138.25C11.84 134.21 11.54 130.01 11.97 126C13.07 128.61 12.42 136.89 12.54 140.25C12.56 141.11 12.13 144.23 12.91 144.77C14.11 145.61 16.19 142.42 16.77 142.06C20.72 139.57 23.46 134.7 27.13 132.37C28.66 131.4 29.76 130.71 31.12 129.37C32.68 127.84 34.29 125.54 36.13 124.37C36.55 124.11 37.24 124.11 37.6 123.81C38.1 123.38 37.9 122.62 38.4 122.19C38.76 121.89 39.45 121.89 39.88 121.63C43.47 119.35 45.53 114.65 49.13 112.37C49.68 112.02 50.32 111.98 50.88 111.63C53.25 110.12 55.37 107.13 57.36 105.13C58.06 104.42 59.25 104.25 59.81 103.6C60.16 103.2 59.96 102.57 60.4 102.19C60.76 101.89 61.45 101.89 61.88 101.63C64.55 99.93 66.85 96.59 69.12 94.37C71.23 92.3 73.53 91.02 75.63 88.88C77.01 87.48 78.65 85.11 80.39 84.19C82.11 83.27 83.98 84.15 85.57 83.56C86.74 83.18 88.39 83.86 89.76 83.82C91.64 83.76 93.54 82.83 95.12 81.86C107.5 74.28 114.22 63.16 130.01 61.99C135.25 61.6 139.15 62.05 144 64.02C145.36 64.57 146.66 64.85 147.68 65.92Z" fill="#f4985a" fill-rule="evenodd" stroke="#f4985a" stroke-width="0.25" stroke-linejoin="round"/>
<path d="M242.08 4.8C244.61 5.39 243.22 6.11 244.52 7.2C244.86 7.49 245.58 7.41 246.01 7.7C248.22 9.17 251.06 15.9 251.28 18.5C251.02 18.34 250.03 17.64 249.75 17.69C249.21 17.78 249.11 18.65 248.68 18.91C248.22 19.19 247.4 18.99 247.03 19.4C246.63 19.85 247.02 20.47 246.69 20.91C246.38 21.32 245.62 21.26 245.26 21.59C244.95 21.87 245.04 22.47 244.65 22.68C244.09 22.98 243.63 22.46 243.05 22.78C242.37 23.15 242.48 24.19 241.98 24.74C240.27 26.57 237.62 27.87 235.8 29.61C234.62 30.74 233.75 32.23 232.46 33.27C231.17 34.31 230.18 35.6 228.98 36.74C228.52 37.17 227.67 37.19 227.26 37.61C226.9 37.98 227.04 38.53 226.69 38.91C226.34 39.3 225.6 39.26 225.26 39.61C224.9 39.98 225.08 40.58 224.67 40.91C224.13 41.34 223.33 41.05 222.78 41.52C221.74 42.4 220.97 43.78 219.98 44.74C218.13 46.52 215.66 47.84 213.8 49.61C211.36 51.94 209.29 54.82 206.67 56.96C203.89 59.23 204.9 57.39 203.61 56.07C202.4 54.83 199.68 56.01 198.63 56.9C197.9 57.52 197.78 58.72 197.25 59.49C195.95 61.36 194.14 62.87 192.91 64.75C192.4 65.54 192.33 66.84 191.74 67.53C191.27 68.07 190.27 67.87 189.93 68.39C189.57 68.94 190.35 69.94 190 70.57C189.3 71.82 186.9 71.6 186 72.46C185.7 72.74 184.75 74.88 184.68 75.25C184.59 75.69 185.05 76.24 184.85 76.67C184.49 77.45 183.45 76.92 182.94 77.26C182.89 77.29 182.51 77.99 181.8 78.5C181.19 76.02 181.31 73.29 180.78 70.75C180.38 68.79 179.4 66.91 179.31 65C179.44 64.21 178.88 62.62 179.21 61.96C179.81 60.81 181.83 61.3 182.66 60.43C184.61 58.37 184.23 53.88 186.63 52.42C188.02 51.57 189.68 52.22 191.14 51.81C192.9 51.32 194.05 48.79 195.48 47.72C196.94 46.64 199.97 45.91 201.1 44.8C202.52 43.4 199.74 40.82 200.94 39.2C201.67 38.2 203.21 36.53 204.3 35.96C204.76 35.72 205.3 35.89 205.66 35.46C205.93 35.14 205.78 34.56 206.04 34.26C206.43 33.82 207.04 34.01 207.46 33.66C207.97 33.24 207.76 32.48 208.26 32.04C208.59 31.75 209.29 31.73 209.7 31.46C212.44 29.6 214.09 25.89 216.95 24.2C217.52 23.86 218.14 23.82 218.7 23.46C221.47 21.64 223.09 17.89 225.95 16.2C226.38 15.94 227.1 15.95 227.46 15.66C228.63 14.72 227.1 15.02 229.46 13.66C231.62 12.42 234.62 8.58 236.46 6.7C237.02 6.12 238.05 4.61 238.83 4.4C240.83 3.87 240.29 6.24 242.08 4.8ZM157.7 76.09C160.58 80.75 157.14 90.25 155.32 94.96C154.57 96.92 153.37 98.27 152.18 99.9C150.74 101.87 149.53 104.1 147.75 106C146.93 106.87 145.91 107.4 145.05 108.15C143.8 109.24 142.74 110.85 141.44 111.89C135.93 116.31 129.74 120.13 123.94 124.21C121.11 126.21 115.44 131.05 112.5 131.71C110.96 130.52 112.2 127.06 113.26 125.55C113.9 124.61 115.49 124.27 116.4 123.63C118.81 121.94 121.3 119.69 123.26 117.5C124.17 116.47 125.52 115 125.98 113.71C126.66 111.84 126.11 109.24 127.39 107.62C127.75 107.16 128.47 107 128.93 106.65C130.69 105.34 132.26 104.01 134.3 103.02C135.41 102.48 136.8 102.27 137.81 101.55C140.26 99.81 142.8 95.21 144.33 92.58C145.8 90.03 147.13 87.4 148.67 84.89C150 82.72 151.79 80.88 152.76 78.61C153.17 77.64 154.01 74.33 155.3 74.03C156.21 73.82 156.91 75.64 157.7 76.09ZM99.91 141.55C98.01 144.16 94.7 146.07 92.52 148.63C88.1 153.84 83.44 161.07 81.4 167.52C80.17 171.41 79.23 177.33 78.87 181.5C78.71 183.49 78.78 185.59 78.21 187.5C75.57 187.45 74.02 187.89 71.41 186.42C69.23 185.19 70.95 181.71 67.37 182.61C66.45 182.85 66.64 183.87 66.22 184.47C65.52 185.48 63.89 185.84 63.05 186.77C62.41 187.48 62.48 188.37 61.67 188.96C61.12 189.36 60.34 189.28 59.82 189.63C59.36 189.93 59.2 190.64 58.77 191.03C56.75 192.85 54.94 194.87 52.98 196.74C52.52 197.17 51.67 197.19 51.26 197.61C50.9 197.98 51.04 198.53 50.69 198.91C50.34 199.3 49.6 199.26 49.26 199.61C48.9 199.98 49.04 200.53 48.69 200.91C48.22 201.42 47.34 201.27 46.82 201.62C45.72 202.36 44.92 203.82 43.98 204.74C42.71 205.97 36.1 210.69 35.63 211.82C35.27 212.68 35.88 214.41 35.93 215.22C33.02 213.8 29.26 205.98 27.81 203.01C27.09 201.53 26.12 200.82 25.84 199.08C26.52 198.38 26.6 197.72 27.2 196.93C27.85 196.07 28.76 196.22 29.46 195.66C29.92 195.29 29.7 194.65 30.04 194.26C30.44 193.81 31.19 193.8 31.7 193.46C35.2 191.09 37.31 186.36 40.95 184.2C41.52 183.86 42.14 183.82 42.7 183.46C45.07 181.9 47.18 178.96 49.2 176.93C49.9 176.22 51.13 176.1 51.66 175.46C52.01 175.04 51.82 174.43 52.26 174.04C52.59 173.75 53.29 173.73 53.7 173.46C57.2 171.09 59.31 166.36 62.95 164.2C63.44 163.9 63.98 163.93 64.46 163.66C67.44 162.04 69.02 157.93 71.95 156.2C72.38 155.94 73.1 155.95 73.46 155.66C73.98 155.25 73.76 154.48 74.26 154.04C74.54 153.8 75.12 153.86 75.46 153.66C77.11 152.71 78.56 150.53 79.93 149.2C81.46 147.7 83.11 145.29 84.95 144.2C85.52 143.86 86.14 143.82 86.7 143.46C88.05 142.57 88.85 140.36 90.75 140.39C91.69 140.41 92.27 141.09 93.25 141.12C94.63 141.15 99.46 140.26 99.51 140.3C99.55 140.34 99.88 141.46 99.91 141.55Z" fill="#f7553e" fill-rule="evenodd" stroke="#f7553e" stroke-width="0.25" stroke-linejoin="round"/>
<path d="M221.04 0.08C225.05 0.08 229.05 0.08 233.06 0.08C234.12 1.55 240.7 1.95 242.08 4.8C240.29 6.24 240.83 3.87 238.83 4.4C238.05 4.61 237.02 6.12 236.46 6.7C234.62 8.58 231.62 12.42 229.46 13.66C227.1 15.02 228.63 14.72 227.46 15.66C227.1 15.95 226.38 15.94 225.95 16.2C223.09 17.89 221.47 21.64 218.7 23.46C218.14 23.82 217.52 23.86 216.95 24.2C214.09 25.89 212.44 29.6 209.7 31.46C209.29 31.73 208.59 31.75 208.26 32.04C207.76 32.48 207.97 33.24 207.46 33.66C207.04 34.01 206.43 33.82 206.04 34.26C205.78 34.56 205.93 35.14 205.66 35.46C205.3 35.89 204.76 35.72 204.3 35.96C203.21 36.53 201.67 38.2 200.94 39.2C199.74 40.82 202.52 43.4 201.1 44.8C199.97 45.91 196.94 46.64 195.48 47.72C194.05 48.79 192.9 51.32 191.14 51.81C189.68 52.22 188.02 51.57 186.63 52.42C184.23 53.88 184.61 58.37 182.66 60.43C181.83 61.3 179.81 60.81 179.21 61.96C178.88 62.62 179.44 64.21 179.31 65C178.1 64.31 178.14 63.27 177.49 62.12C176.41 60.21 173.08 54.85 171.43 54.16C171.23 53.99 171.03 53.83 170.83 53.66C170.83 53.49 170.83 53.31 170.83 53.13C170.52 52.35 168.56 50.78 169.15 49.89C169.56 49.27 171.45 49.24 172.19 48.9C173.4 48.35 178.26 45.52 178.8 44.54C178.94 44.3 177.7 38.9 178.08 37.93C179.56 34.24 183.29 37.49 185.17 33.9C185.41 33.45 185.23 32.77 185.52 32.4C185.78 32.06 186.34 32.16 186.67 31.94C187.69 31.25 188.3 29.81 189.39 29.22C189.89 28.95 190.46 29.13 190.87 28.64C191.14 28.32 190.96 27.69 191.22 27.4C191.57 26.98 192.23 27.21 192.64 26.87C193.17 26.43 192.9 25.62 193.39 25.22C193.74 24.94 194.49 24.97 194.92 24.7C195.81 24.14 196.67 22.91 197.4 22.13C200.26 19.1 203.28 16 206.36 13.18C207.24 12.37 207.85 12.83 208.72 12.34C209.02 12.17 209.01 11.62 209.19 11.37C209.66 10.74 210.71 9.59 211.39 9.22C211.75 9.02 212.3 9.15 212.64 8.87C213.13 8.47 212.87 7.8 213.22 7.4C213.57 6.98 214.23 7.21 214.64 6.87C215.17 6.43 214.9 5.62 215.39 5.22C215.69 4.98 216.33 5.09 216.68 4.9C218.07 4.14 220.48 1.47 221.04 0.08ZM154.14 70.45C155.75 71.29 158.25 74.13 157.7 76.09C156.91 75.64 156.21 73.82 155.3 74.03C154.01 74.33 153.17 77.64 152.76 78.61C151.79 80.88 150 82.72 148.67 84.89C147.13 87.4 145.8 90.03 144.33 92.58C142.8 95.21 140.26 99.81 137.81 101.55C136.8 102.27 135.41 102.48 134.3 103.02C132.26 104.01 130.69 105.34 128.93 106.65C128.47 107 127.75 107.16 127.39 107.62C126.11 109.24 126.66 111.84 125.98 113.71C125.52 115 124.17 116.47 123.26 117.5C121.3 119.69 118.81 121.94 116.4 123.63C115.49 124.27 113.9 124.61 113.26 125.55C112.2 127.06 110.96 130.52 112.5 131.71C112.16 133.02 110.74 133.6 109.64 134.41C106.55 136.68 103.38 139.99 99.91 141.55C99.88 141.46 99.55 140.34 99.51 140.3C99.46 140.26 94.63 141.15 93.25 141.12C92.27 141.09 91.69 140.41 90.75 140.39C88.85 140.36 88.05 142.57 86.7 143.46C86.14 143.82 85.52 143.86 84.95 144.2C83.11 145.29 81.46 147.7 79.93 149.2C78.56 150.53 77.11 152.71 75.46 153.66C75.12 153.86 74.54 153.8 74.26 154.04C73.76 154.48 73.98 155.25 73.46 155.66C73.1 155.95 72.38 155.94 71.95 156.2C69.02 157.93 67.44 162.04 64.46 163.66C63.98 163.93 63.44 163.9 62.95 164.2C59.31 166.36 57.2 171.09 53.7 173.46C53.29 173.73 52.59 173.75 52.26 174.04C51.82 174.43 52.01 175.04 51.66 175.46C51.13 176.1 49.9 176.22 49.2 176.93C47.18 178.96 45.07 181.9 42.7 183.46C42.14 183.82 41.52 183.86 40.95 184.2C37.31 186.36 35.2 191.09 31.7 193.46C31.19 193.8 30.44 193.81 30.04 194.26C29.7 194.65 29.92 195.29 29.46 195.66C28.76 196.22 27.85 196.07 27.2 196.93C26.6 197.72 26.52 198.38 25.84 199.08C23.57 196.9 19.51 187.52 19.34 184.5C20.91 182.5 27.24 175.54 29.17 174.38C30.15 173.78 32.13 173.54 32.87 172.64C33.19 172.26 33.12 171.59 33.38 171.16C34.23 169.77 36.15 169.51 36.87 168.64C37.14 168.32 36.96 167.69 37.22 167.4C37.57 166.98 38.23 167.21 38.64 166.87C39.17 166.43 38.9 165.62 39.39 165.22C39.69 164.98 40.33 165.09 40.68 164.9C42.21 164.06 43.65 161.91 44.93 160.7C46.79 158.93 50.18 154.48 52.16 153.38C52.9 152.97 53.95 153.37 54.64 152.87C55.17 152.49 55.07 151.68 55.38 151.16C56.23 149.77 57.69 149.67 58.64 148.87C59.13 148.47 58.87 147.8 59.22 147.4C59.57 146.98 60.23 147.21 60.64 146.87C61.17 146.43 60.9 145.62 61.39 145.22C61.69 144.98 62.33 145.09 62.68 144.9C65.94 143.13 70.92 135.19 74.16 133.38C74.9 132.97 75.95 133.37 76.64 132.87C77.45 132.29 77.03 130.67 78.34 130.38C79.95 130.03 81.61 133.63 82.69 134.54C83.71 135.4 89.4 134.67 90.6 134.07C90.94 133.91 91.04 133.38 91.36 133.16C91.7 132.93 92.2 133 92.53 132.75C93.03 132.39 93.17 131.75 93.53 131.27C95.15 129.13 97.3 126.76 99.49 125.24C103.59 122.39 111.81 120.7 114.8 116.53C117.62 112.6 113.33 111.96 114.1 109.37C114.57 107.78 116.24 107.38 117.46 106.68C120.49 104.94 123.48 103.35 126.6 101.81C129.13 100.55 133.13 97.73 134.7 95.47C135.37 94.51 135.91 93.32 136.65 92.44C137.69 91.2 139.22 90.32 140.26 89.02C142.48 86.26 144.07 82.73 146.03 79.77C147 78.31 148.62 75.54 149.23 74.01C149.69 72.87 149.96 70 151.03 69.33C151.49 69.03 153.62 70.38 154.14 70.45Z" fill="#f6704b" fill-rule="evenodd" stroke="#f6704b" stroke-width="0.25" stroke-linejoin="round"/>
<path d="M201.56 0.08C208.05 0.08 214.55 0.08 221.04 0.08C220.48 1.47 218.07 4.14 216.68 4.9C216.33 5.09 215.69 4.98 215.39 5.22C214.9 5.62 215.17 6.43 214.64 6.87C214.23 7.21 213.57 6.98 213.22 7.4C212.87 7.8 213.13 8.47 212.64 8.87C212.3 9.15 211.75 9.02 211.39 9.22C210.71 9.59 209.66 10.74 209.19 11.37C209.01 11.62 209.02 12.17 208.72 12.34C207.85 12.83 207.24 12.37 206.36 13.18C203.28 16 200.26 19.1 197.4 22.13C196.67 22.91 195.81 24.14 194.92 24.7C194.49 24.97 193.74 24.94 193.39 25.22C192.9 25.62 193.17 26.43 192.64 26.87C192.23 27.21 191.57 26.98 191.22 27.4C190.96 27.69 191.14 28.32 190.87 28.64C190.46 29.13 189.89 28.95 189.39 29.22C188.3 29.81 187.69 31.25 186.67 31.94C186.34 32.16 185.78 32.06 185.52 32.4C185.23 32.77 185.41 33.45 185.17 33.9C183.29 37.49 179.56 34.24 178.08 37.93C177.7 38.9 178.94 44.3 178.8 44.54C178.26 45.52 173.4 48.35 172.19 48.9C171.45 49.24 169.56 49.27 169.15 49.89C168.56 50.78 170.52 52.35 170.83 53.13C170.68 53.17 170.53 53.21 170.37 53.24C170.19 53.2 170.01 53.16 169.83 53.12C165.72 49.67 161.23 47.06 156.5 44.64C157.77 44 157.14 43.68 157.75 42.53C158.17 41.75 159.23 41.62 159.73 40.97C159.79 40.89 161.32 37.71 161.33 37.65C161.43 37.15 160.95 36.83 161.05 36.31C161.2 35.56 162.35 35.33 162.51 34.65C162.7 33.82 161.38 33.04 162.29 32.13C163.3 31.13 166 31.44 167.24 31.17C167.6 31.09 171.75 28.6 172.06 28.34C172.6 27.89 172.46 27.15 172.91 26.74C173.19 26.48 173.96 26.37 174.34 26.09C176.97 24.18 178.68 20.96 181.34 19.09C181.89 18.7 182.48 18.67 183.06 18.34C185.57 16.87 189.56 11.83 191.84 9.59C192.59 8.86 193.71 8.81 194.34 8.06C194.6 7.75 194.51 7.16 194.74 6.91C195.04 6.57 195.66 6.57 196.06 6.34C197.8 5.3 201.14 1.92 201.56 0.08ZM147.68 65.92C149.88 66.45 153.12 68.48 154.14 70.45C153.62 70.38 151.49 69.03 151.03 69.33C149.96 70 149.69 72.87 149.23 74.01C148.62 75.54 147 78.31 146.03 79.77C144.07 82.73 142.48 86.26 140.26 89.02C139.22 90.32 137.69 91.2 136.65 92.44C135.91 93.32 135.37 94.51 134.7 95.47C133.13 97.73 129.13 100.55 126.6 101.81C123.48 103.35 120.49 104.94 117.46 106.68C116.24 107.38 114.57 107.78 114.1 109.37C113.33 111.96 117.62 112.6 114.8 116.53C111.81 120.7 103.59 122.39 99.49 125.24C97.3 126.76 95.15 129.13 93.53 131.27C93.17 131.75 93.03 132.39 92.53 132.75C92.2 133 91.7 132.93 91.36 133.16C91.04 133.38 90.94 133.91 90.6 134.07C89.4 134.67 83.71 135.4 82.69 134.54C81.61 133.63 79.95 130.03 78.34 130.38C77.03 130.67 77.45 132.29 76.64 132.87C75.95 133.37 74.9 132.97 74.16 133.38C70.92 135.19 65.94 143.13 62.68 144.9C62.33 145.09 61.69 144.98 61.39 145.22C60.9 145.62 61.17 146.43 60.64 146.87C60.23 147.21 59.57 146.98 59.22 147.4C58.87 147.8 59.13 148.47 58.64 148.87C57.69 149.67 56.23 149.77 55.38 151.16C55.07 151.68 55.17 152.49 54.64 152.87C53.95 153.37 52.9 152.97 52.16 153.38C50.18 154.48 46.79 158.93 44.93 160.7C43.65 161.91 42.21 164.06 40.68 164.9C40.33 165.09 39.69 164.98 39.39 165.22C38.9 165.62 39.17 166.43 38.64 166.87C38.23 167.21 37.57 166.98 37.22 167.4C36.96 167.69 37.14 168.32 36.87 168.64C36.15 169.51 34.23 169.77 33.38 171.16C33.12 171.59 33.19 172.26 32.87 172.64C32.13 173.54 30.15 173.78 29.17 174.38C27.24 175.54 20.91 182.5 19.34 184.5C18.31 183.21 18.27 181.4 17.72 179.84C16.6 176.7 15.19 173.45 15.01 170C18.86 168.08 21.74 164.69 24.84 161.59C25.66 160.77 26.58 159.44 27.59 158.87C31.84 156.47 34.34 151.9 38.34 149.09C38.87 148.72 39.57 148.74 40.06 148.34C40.6 147.89 40.46 147.15 40.91 146.74C41.19 146.48 41.96 146.37 42.34 146.09C44.97 144.18 46.68 140.96 49.34 139.09C49.89 138.7 50.48 138.67 51.06 138.34C54.81 136.15 56.82 131 60.59 128.87C61.06 128.6 61.63 128.69 62.06 128.34C62.56 127.93 62.4 127.29 62.74 126.91C63.08 126.53 63.88 126.42 64.34 126.09C66.99 124.16 68.74 120.47 71.59 118.87C72.06 118.6 72.59 118.61 73.06 118.34C74.47 117.52 75.32 115.24 76.89 114.74C80.08 113.73 83.69 115.16 86.55 112.81C87.57 111.97 87.53 110.35 88.22 109.39C88.56 108.91 89.39 109.06 89.81 108.54C90.43 107.77 90.33 106.75 91.39 106.22C91.76 106.03 92.4 106.2 92.72 105.93C93.24 105.5 92.85 104.58 93.38 104.2C94.46 103.44 96.6 104.63 97.72 103.92C98.24 103.58 97.95 102.69 98.52 102.28C99.49 101.56 101.08 102.36 102.16 101.93C103.02 101.59 102.77 100.56 103.38 100.22C103.81 99.97 108.89 99.29 109.74 99.09C110.97 98.81 110.65 97.84 111.52 97.3C112.51 96.7 114.07 97.27 115.16 96.89C116.52 96.4 117.08 94.62 118.28 94.08C119.16 93.68 120.22 94.08 121.09 93.75C121.81 93.48 121.8 92.61 122.42 92.22C123.23 91.72 124.26 92.02 125.1 91.74C125.87 91.48 126.23 90.56 126.92 90.16C127.36 89.9 128 89.91 128.39 89.61C129.5 88.74 130.43 85.28 131.2 83.96C131.85 82.83 133.14 82.58 133.94 81.69C134.35 81.23 134.43 80.62 134.88 80.21C135.33 79.79 136.11 79.76 136.55 79.32C136.8 79.08 138.71 76.88 138.85 76.64C139.04 76.3 138.86 75.66 139.08 75.41C139.82 74.57 141.56 75.37 142.36 74.55C142.75 74.14 142.61 73.56 142.86 73.1C143.19 72.5 143.94 72.23 144.23 71.6C144.82 70.26 144.21 68.2 145.33 67.09C145.96 66.47 146.96 66.43 147.68 65.92Z" fill="#f58656" fill-rule="evenodd" stroke="#f58656" stroke-width="0.25" stroke-linejoin="round"/>
<path d="M30.93 0.08C53.28 0.08 75.63 0.08 97.98 0.08C97.15 1.8 95.81 2.28 94.3 3.1C93.15 3.73 92.05 5.4 91.07 6.3C89.7 7.56 88.28 9.95 86.64 10.82C86.16 11.08 85.58 10.99 85.09 11.28C83.89 12.01 82.92 13.66 81.88 14.62C79.98 16.36 75.43 21.83 73.61 22.8C73.13 23.06 72.57 22.99 72.09 23.28C69.27 25.01 67.66 28.9 64.84 30.65C64.36 30.95 63.79 30.85 63.3 31.1C62.7 31.42 62.09 32.37 61.62 32.88C59.89 34.76 53.59 41.53 51.82 42.62C51.35 42.92 50.78 42.84 50.3 43.1C47.58 44.58 45.51 49 42.84 50.65C41.87 51.26 41.12 51.18 40.27 52.1C38.63 53.89 31.16 61.97 29.61 62.8C29.13 63.06 28.57 62.99 28.09 63.28C26.51 64.25 25.25 66.36 23.88 67.62C22.92 68.5 21.76 70.22 20.64 70.82C20.16 71.08 19.58 70.99 19.09 71.28C16.44 72.89 14.98 76.18 12.15 77.64C11.47 72.31 11.86 66.67 11.86 61.25C11.86 51.75 11.86 42.25 11.86 32.75C11.86 24.33 11.3 15.56 17.04 8.7C19.07 6.27 22.03 3.56 25 2.24C26.91 1.4 29.3 1.34 30.93 0.08Z" fill="#edd648" fill-rule="evenodd" stroke="#edd648" stroke-width="0.25" stroke-linejoin="round"/>
<path d="M144.07 0.08C153.71 0.08 163.36 0.08 173 0.08C172.32 1.53 171.44 1.3 170.4 2.19C169.9 2.62 170.1 3.38 169.6 3.81C168.87 4.43 167.9 4.6 167.11 5.37C165.16 7.29 163.18 10.16 160.88 11.63C160.32 11.98 159.68 12.02 159.13 12.37C156.36 14.13 153.31 18.25 150.89 20.63C150.12 21.38 148.78 21.71 148.19 22.4C147.93 22.71 148.07 23.29 147.81 23.6C147.41 24.07 146.64 24.05 146.13 24.37C145.42 24.82 140.73 29.73 140.82 30.22C141.07 31.52 144.16 31.21 144.48 33.27C144.76 35.01 143.5 38.48 143.85 39.72C143.98 40.21 145.21 40.76 145.58 41.07C144.12 41.07 142.95 40.68 141.52 40.44C136.85 39.65 131.42 39.71 126.75 40.44C123.57 40.93 120.07 41.4 117.04 42.52C114.11 43.6 110.99 45.18 108 45.56C105.32 44.36 109.21 40.81 110.35 39.58C111.11 38.76 114.64 35.7 114.92 34.74C115.42 33.07 112.39 30.54 111.22 29.75C113.25 28.57 112.61 28.17 113.59 27.38C114.71 26.48 116.65 25.94 117.74 24.96C118.22 24.53 118.07 23.79 118.59 23.38C118.97 23.08 119.63 23.1 120.07 22.84C122.36 21.48 124.44 18.48 126.34 16.59C127.08 15.85 128.07 15.57 128.74 14.96C129.16 14.59 129.03 14.01 129.38 13.59C129.81 13.08 130.53 13.22 130.96 12.74C131.22 12.45 131.11 11.91 131.38 11.59C131.75 11.15 132.36 11.31 132.74 10.96C133.16 10.59 133.03 10.01 133.38 9.59C133.75 9.15 134.36 9.31 134.74 8.96C135.16 8.59 135.03 8.01 135.38 7.59C135.78 7.11 136.54 7.15 137.07 6.84C138.27 6.12 143.78 0.85 144.07 0.08ZM78.66 71.91C78.65 75.18 78.27 79.26 81.38 81.45C82.67 82.35 84.64 82.6 85.57 83.56C83.98 84.15 82.11 83.27 80.39 84.19C78.65 85.11 77.01 87.48 75.63 88.88C73.53 91.02 71.23 92.3 69.12 94.37C66.85 96.59 64.55 99.93 61.88 101.63C61.45 101.89 60.76 101.89 60.4 102.19C59.96 102.57 60.16 103.2 59.81 103.6C59.25 104.25 58.06 104.42 57.36 105.13C55.37 107.13 53.25 110.12 50.88 111.63C50.32 111.98 49.68 112.02 49.13 112.37C45.53 114.65 43.47 119.35 39.88 121.63C39.45 121.89 38.76 121.89 38.4 122.19C37.9 122.62 38.1 123.38 37.6 123.81C37.24 124.11 36.55 124.11 36.13 124.37C34.29 125.54 32.68 127.84 31.12 129.37C29.76 130.71 28.66 131.4 27.13 132.37C23.46 134.7 20.72 139.57 16.77 142.06C16.19 142.42 14.11 145.61 12.91 144.77C12.13 144.23 12.56 141.11 12.54 140.25C12.42 136.89 13.07 128.61 11.97 126C12.04 110.5 12.1 95 12.16 79.5C12.3 86.17 12.44 92.83 12.58 99.5C12.19 103.23 12.05 116.61 13.25 119.65C14.57 118.36 16.01 116.32 17.59 115.38C18.05 115.11 18.6 115.15 18.96 114.74C19.31 114.36 19.15 113.75 19.59 113.38C20.01 113.03 20.59 113.16 20.96 112.74C21.31 112.36 21.15 111.75 21.59 111.38C21.91 111.11 22.45 111.22 22.74 110.96C23.16 110.59 23.03 110.01 23.38 109.59C23.81 109.08 24.53 109.22 24.96 108.74C25.31 108.36 25.14 107.74 25.59 107.38C26.71 106.48 28.65 105.94 29.74 104.96C30.22 104.53 30.07 103.79 30.59 103.38C30.97 103.08 31.63 103.1 32.07 102.84C34.92 101.14 36.63 97.51 39.34 95.59C39.73 95.31 40.42 95.25 40.74 94.96C41.16 94.59 41.03 94.01 41.38 93.59C41.75 93.15 42.36 93.31 42.74 92.96C43.16 92.59 43.03 92.01 43.38 91.59C43.75 91.15 44.36 91.31 44.74 90.96C45.16 90.59 45.03 90.01 45.38 89.59C45.81 89.08 46.53 89.22 46.96 88.74C47.31 88.36 47.14 87.74 47.59 87.38C48.71 86.48 50.65 85.94 51.74 84.96C52.22 84.53 52.07 83.79 52.59 83.38C52.97 83.08 53.63 83.1 54.07 82.84C55.08 82.24 56 80.93 56.84 80.09C58.27 78.65 59.85 76.41 61.59 75.38C61.91 75.19 62.48 75.2 62.74 74.96C63.22 74.53 63.08 73.81 63.59 73.38C63.91 73.11 64.45 73.22 64.74 72.96C65.16 72.59 65.03 72.01 65.38 71.59C65.75 71.15 66.36 71.31 66.74 70.96C67.26 70.49 67.05 69.46 67.86 69.26C68.24 69.16 68.45 69.52 68.8 69.51C69.31 69.5 69.73 69.12 70.22 69.16C71 69.23 71.54 70.16 72.36 70.3C74.64 70.7 76.95 70.13 78.66 71.91Z" fill="#f2aa55" fill-rule="evenodd" stroke="#f2aa55" stroke-width="0.25" stroke-linejoin="round"/>
<path d="M251.28 18.5C252.34 20.87 252.05 23.69 252.05 26.25C252.05 30.47 252.62 35.29 251.78 39.35C249.69 40.27 248.74 42.43 246.84 43.62C246.29 43.96 245.64 43.97 245.09 44.31C242.26 46.05 240.66 49.86 237.84 51.62C237.33 51.94 236.53 51.87 236.13 52.34C235.87 52.66 236.06 53.28 235.8 53.6C235.37 54.11 234.57 53.83 234.13 54.34C233.79 54.75 234.06 55.42 233.6 55.8C233.24 56.1 232.52 56.05 232.09 56.31C229.26 58.05 227.66 61.86 224.84 63.62C224.29 63.96 223.64 63.97 223.09 64.31C220.26 66.05 218.66 69.86 215.84 71.62C215.42 71.88 214.69 71.84 214.34 72.13C213.88 72.52 214.14 73.19 213.8 73.6C213.37 74.11 212.57 73.83 212.13 74.34C211.79 74.75 212.06 75.42 211.6 75.8C211.24 76.1 210.52 76.05 210.09 76.31C207.26 78.05 205.66 81.86 202.84 83.62C201.5 84.46 200.48 84.85 199.31 86.08C197.69 87.78 195.82 90.38 193.84 91.62C193.42 91.88 192.69 91.84 192.34 92.13C191.88 92.52 192.14 93.19 191.8 93.6C191.37 94.11 190.57 93.83 190.13 94.34C189.79 94.75 190.06 95.42 189.6 95.8C189.24 96.1 188.52 96.05 188.09 96.31C186.4 97.35 184.69 99.64 183.31 101.08C182.54 101.89 181.59 103.27 180.61 103.8C179.22 104.54 178.18 105 177.09 106.3C176.79 106.67 175.2 109.38 175.19 109.38C174.58 109.67 174.63 108.86 174.5 108.6C175.01 107.09 175.82 105.78 176.47 104.36C179.11 98.58 180.6 92.07 181.12 85.75C181.21 84.7 181.15 83.34 181.5 82.34C182.06 80.71 183.03 80.28 181.8 78.5C182.51 77.99 182.89 77.29 182.94 77.26C183.45 76.92 184.49 77.45 184.85 76.67C185.05 76.24 184.59 75.69 184.68 75.25C184.75 74.88 185.7 72.74 186 72.46C186.9 71.6 189.3 71.82 190 70.57C190.35 69.94 189.57 68.94 189.93 68.39C190.27 67.87 191.27 68.07 191.74 67.53C192.33 66.84 192.4 65.54 192.91 64.75C194.14 62.87 195.95 61.36 197.25 59.49C197.78 58.72 197.9 57.52 198.63 56.9C199.68 56.01 202.4 54.83 203.61 56.07C204.9 57.39 203.89 59.23 206.67 56.96C209.29 54.82 211.36 51.94 213.8 49.61C215.66 47.84 218.13 46.52 219.98 44.74C220.97 43.78 221.74 42.4 222.78 41.52C223.33 41.05 224.13 41.34 224.67 40.91C225.08 40.58 224.9 39.98 225.26 39.61C225.6 39.26 226.34 39.3 226.69 38.91C227.04 38.53 226.9 37.98 227.26 37.61C227.67 37.19 228.52 37.17 228.98 36.74C230.18 35.6 231.17 34.31 232.46 33.27C233.75 32.23 234.62 30.74 235.8 29.61C237.62 27.87 240.27 26.57 241.98 24.74C242.48 24.19 242.37 23.15 243.05 22.78C243.63 22.46 244.09 22.98 244.65 22.68C245.04 22.47 244.95 21.87 245.26 21.59C245.62 21.26 246.38 21.32 246.69 20.91C247.02 20.47 246.63 19.85 247.03 19.4C247.4 18.99 248.22 19.19 248.68 18.91C249.11 18.65 249.21 17.78 249.75 17.69C250.03 17.64 251.02 18.34 251.28 18.5ZM78.21 187.5C78.36 188.88 78.78 191.42 78.35 192.75C78.07 193.65 77.61 193.97 77.5 194.98C76.25 196.07 77.17 196.56 76.56 197.89C76.21 198.65 71.4 203.37 70.61 203.8C70.13 204.06 69.57 204.02 69.09 204.31C66.26 206.05 64.66 209.86 61.84 211.62C61.42 211.88 60.69 211.84 60.34 212.13C59.82 212.57 60.11 213.37 59.6 213.8C59.28 214.06 58.66 213.87 58.34 214.13C57.83 214.57 58.12 215.37 57.6 215.8C57.24 216.1 56.52 216.05 56.09 216.31C53.26 218.05 51.66 221.86 48.84 223.62C48.07 224.1 46.55 224.11 46.31 225.3C46.05 226.56 47.82 227.96 48.22 229.02C46.13 228.46 45.45 226.6 43.95 225.14C41.63 222.86 36.57 218.25 35.93 215.22C35.88 214.41 35.27 212.68 35.63 211.82C36.1 210.69 42.71 205.97 43.98 204.74C44.92 203.82 45.72 202.36 46.82 201.62C47.34 201.27 48.22 201.42 48.69 200.91C49.04 200.53 48.9 199.98 49.26 199.61C49.6 199.26 50.34 199.3 50.69 198.91C51.04 198.53 50.9 197.98 51.26 197.61C51.67 197.19 52.52 197.17 52.98 196.74C54.94 194.87 56.75 192.85 58.77 191.03C59.2 190.64 59.36 189.93 59.82 189.63C60.34 189.28 61.12 189.36 61.67 188.96C62.48 188.37 62.41 187.48 63.05 186.77C63.89 185.84 65.52 185.48 66.22 184.47C66.64 183.87 66.45 182.85 67.37 182.61C70.95 181.71 69.23 185.19 71.41 186.42C74.02 187.89 75.57 187.45 78.21 187.5Z" fill="#f93a31" fill-rule="evenodd" stroke="#f93a31" stroke-width="0.25" stroke-linejoin="round"/>
<path d="M97.98 0.08C105.82 0.08 113.66 0.08 121.5 0.08C121.25 2.03 116.64 5.58 114.97 7.23C113.74 8.44 112.44 10.35 110.95 11.21C110.38 11.55 109.78 11.58 109.23 11.97C106.71 13.74 104.79 16.67 102.49 18.73C101.78 19.37 100.95 19.4 100.23 19.97C99.07 20.9 98.26 22.35 97.19 23.38C95.67 24.83 91.53 27.64 90.73 29.51C89.92 31.39 92.68 30.55 93.59 31.25C94.03 31.58 93.86 32.24 94.15 32.67C94.91 33.77 96.55 33.8 95.85 35.71C95.29 37.2 90.39 42.62 88.88 43.66C88.37 44.01 87.74 44.08 87.23 44.43C85.84 45.41 85.43 47.67 84.66 49.05C83.86 50.5 81.7 51.48 80.43 52.28C79.81 52.67 79.4 53.63 78.74 53.97C75.76 55.51 72.93 56.84 69.68 57.74C68.38 58.11 65.02 58.6 63.79 57.92C62.79 57.37 63.31 55.26 61.85 55.46C61.16 55.55 59.98 57.24 59.49 57.73C58.44 58.8 57.31 59.11 56.23 59.97C55.15 60.84 54.33 62.19 53.38 63.19C51.68 64.95 46.84 70.12 44.95 71.21C44.38 71.55 43.78 71.58 43.23 71.97C39.97 74.26 38.41 77.44 34.51 79.75C33.2 80.52 32.27 82.33 31.19 83.38C29.26 85.23 25.01 90.02 22.95 91.21C21.48 92.07 20.48 92.7 19.23 93.97C17.49 95.73 15.09 99.27 12.58 99.5C12.44 92.83 12.3 86.17 12.16 79.5C12.16 78.88 12.16 78.26 12.15 77.64C14.98 76.18 16.44 72.89 19.09 71.28C19.58 70.99 20.16 71.08 20.64 70.82C21.76 70.22 22.92 68.5 23.88 67.62C25.25 66.36 26.51 64.25 28.09 63.28C28.57 62.99 29.13 63.06 29.61 62.8C31.16 61.97 38.63 53.89 40.27 52.1C41.12 51.18 41.87 51.26 42.84 50.65C45.51 49 47.58 44.58 50.3 43.1C50.78 42.84 51.35 42.92 51.82 42.62C53.59 41.53 59.89 34.76 61.62 32.88C62.09 32.37 62.7 31.42 63.3 31.1C63.79 30.85 64.36 30.95 64.84 30.65C67.66 28.9 69.27 25.01 72.09 23.28C72.57 22.99 73.13 23.06 73.61 22.8C75.43 21.83 79.98 16.36 81.88 14.62C82.92 13.66 83.89 12.01 85.09 11.28C85.58 10.99 86.16 11.08 86.64 10.82C88.28 9.95 89.7 7.56 91.07 6.3C92.05 5.4 93.15 3.73 94.3 3.1C95.81 2.28 97.15 1.8 97.98 0.08Z" fill="#eec74c" fill-rule="evenodd" stroke="#eec74c" stroke-width="0.25" stroke-linejoin="round"/>
<path d="M121.5 0.08C129.02 0.08 136.55 0.08 144.07 0.08C143.78 0.85 138.27 6.12 137.07 6.84C136.54 7.15 135.78 7.11 135.38 7.59C135.03 8.01 135.16 8.59 134.74 8.96C134.36 9.31 133.75 9.15 133.38 9.59C133.03 10.01 133.16 10.59 132.74 10.96C132.36 11.31 131.75 11.15 131.38 11.59C131.11 11.91 131.22 12.45 130.96 12.74C130.53 13.22 129.81 13.08 129.38 13.59C129.03 14.01 129.16 14.59 128.74 14.96C128.07 15.57 127.08 15.85 126.34 16.59C124.44 18.48 122.36 21.48 120.07 22.84C119.63 23.1 118.97 23.08 118.59 23.38C118.07 23.79 118.22 24.53 117.74 24.96C116.65 25.94 114.71 26.48 113.59 27.38C112.61 28.17 113.25 28.57 111.22 29.75C112.39 30.54 115.42 33.07 114.92 34.74C114.64 35.7 111.11 38.76 110.35 39.58C109.21 40.81 105.32 44.36 108 45.56C106.88 47.67 102.09 49.73 99.94 51.24C94.98 54.7 90.46 58.68 85.92 62.66C82.84 65.35 79.9 67.94 78.66 71.91C76.95 70.13 74.64 70.7 72.36 70.3C71.54 70.16 71 69.23 70.22 69.16C69.73 69.12 69.31 69.5 68.8 69.51C68.45 69.52 68.24 69.16 67.86 69.26C67.05 69.46 67.26 70.49 66.74 70.96C66.36 71.31 65.75 71.15 65.38 71.59C65.03 72.01 65.16 72.59 64.74 72.96C64.45 73.22 63.91 73.11 63.59 73.38C63.08 73.81 63.22 74.53 62.74 74.96C62.48 75.2 61.91 75.19 61.59 75.38C59.85 76.41 58.27 78.65 56.84 80.09C56 80.93 55.08 82.24 54.07 82.84C53.63 83.1 52.97 83.08 52.59 83.38C52.07 83.79 52.22 84.53 51.74 84.96C50.65 85.94 48.71 86.48 47.59 87.38C47.14 87.74 47.31 88.36 46.96 88.74C46.53 89.22 45.81 89.08 45.38 89.59C45.03 90.01 45.16 90.59 44.74 90.96C44.36 91.31 43.75 91.15 43.38 91.59C43.03 92.01 43.16 92.59 42.74 92.96C42.36 93.31 41.75 93.15 41.38 93.59C41.03 94.01 41.16 94.59 40.74 94.96C40.42 95.25 39.73 95.31 39.34 95.59C36.63 97.51 34.92 101.14 32.07 102.84C31.63 103.1 30.97 103.08 30.59 103.38C30.07 103.79 30.22 104.53 29.74 104.96C28.65 105.94 26.71 106.48 25.59 107.38C25.14 107.74 25.31 108.36 24.96 108.74C24.53 109.22 23.81 109.08 23.38 109.59C23.03 110.01 23.16 110.59 22.74 110.96C22.45 111.22 21.91 111.11 21.59 111.38C21.15 111.75 21.31 112.36 20.96 112.74C20.59 113.16 20.01 113.03 19.59 113.38C19.15 113.75 19.31 114.36 18.96 114.74C18.6 115.15 18.05 115.11 17.59 115.38C16.01 116.32 14.57 118.36 13.25 119.65C12.05 116.61 12.19 103.23 12.58 99.5C15.09 99.27 17.49 95.73 19.23 93.97C20.48 92.7 21.48 92.07 22.95 91.21C25.01 90.02 29.26 85.23 31.19 83.38C32.27 82.33 33.2 80.52 34.51 79.75C38.41 77.44 39.97 74.26 43.23 71.97C43.78 71.58 44.38 71.55 44.95 71.21C46.84 70.12 51.68 64.95 53.38 63.19C54.33 62.19 55.15 60.84 56.23 59.97C57.31 59.11 58.44 58.8 59.49 57.73C59.98 57.24 61.16 55.55 61.85 55.46C63.31 55.26 62.79 57.37 63.79 57.92C65.02 58.6 68.38 58.11 69.68 57.74C72.93 56.84 75.76 55.51 78.74 53.97C79.4 53.63 79.81 52.67 80.43 52.28C81.7 51.48 83.86 50.5 84.66 49.05C85.43 47.67 85.84 45.41 87.23 44.43C87.74 44.08 88.37 44.01 88.88 43.66C90.39 42.62 95.29 37.2 95.85 35.71C96.55 33.8 94.91 33.77 94.15 32.67C93.86 32.24 94.03 31.58 93.59 31.25C92.68 30.55 89.92 31.39 90.73 29.51C91.53 27.64 95.67 24.83 97.19 23.38C98.26 22.35 99.07 20.9 100.23 19.97C100.95 19.4 101.78 19.37 102.49 18.73C104.79 16.67 106.71 13.74 109.23 11.97C109.78 11.58 110.38 11.55 110.95 11.21C112.44 10.35 113.74 8.44 114.97 7.23C116.64 5.58 121.25 2.03 121.5 0.08Z" fill="#f0ba50" fill-rule="evenodd" stroke="#f0ba50" stroke-width="0.25" stroke-linejoin="round"/>
<path d="M169.83 53.12C170.01 53.16 170.19 53.2 170.37 53.24C170.34 53.41 170.3 53.57 170.27 53.73C170.12 53.53 169.97 53.32 169.83 53.12ZM170.27 53.73C170.45 53.71 170.64 53.68 170.83 53.66C170.85 53.87 170.88 54.07 170.9 54.27C170.69 54.09 170.48 53.91 170.27 53.73Z" fill="#fdbab7" fill-rule="evenodd" stroke="#fdbab7" stroke-width="0.25" stroke-linejoin="round"/>
<path d="M170.37 53.24C170.53 53.21 170.68 53.17 170.83 53.13C170.83 53.31 170.83 53.49 170.83 53.66C170.64 53.68 170.45 53.71 170.27 53.73C170.3 53.57 170.34 53.41 170.37 53.24ZM170.83 53.66C171.03 53.83 171.23 53.99 171.43 54.16C171.25 54.19 171.08 54.23 170.9 54.27C170.88 54.07 170.85 53.87 170.83 53.66Z" fill="#f7bd8a" fill-rule="evenodd" stroke="#f7bd8a" stroke-width="0.25" stroke-linejoin="round"/>
<path d="M170.9 54.27C171.08 54.23 171.25 54.19 171.43 54.16C171.25 54.19 171.08 54.23 170.9 54.27Z" fill="#fde2d9" fill-rule="evenodd" stroke="#fde2d9" stroke-width="0.25" stroke-linejoin="round"/>
</svg>